<mxfile host="app.diagrams.net" agent="Mozilla/5.0 (Windows NT 10.0; Win64; x64) AppleWebKit/537.36 (KHTML, like Gecko) Chrome/127.0.0.0 Safari/537.36" version="24.7.7">
  <diagram name="Page-1" id="LaOTVYIouEwNhB-Vdn-D">
    <mxGraphModel dx="637" dy="343" grid="1" gridSize="10" guides="1" tooltips="1" connect="1" arrows="1" fold="1" page="1" pageScale="1" pageWidth="850" pageHeight="1100" math="0" shadow="0">
      <root>
        <mxCell id="0" />
        <mxCell id="1" parent="0" />
        <mxCell id="KcF6cn3DwsQhl4pS27pQ-1" value="Actor" style="shape=umlActor;verticalLabelPosition=bottom;verticalAlign=top;html=1;outlineConnect=0;" vertex="1" parent="1">
          <mxGeometry x="310" y="120" width="30" height="60" as="geometry" />
        </mxCell>
        <mxCell id="KcF6cn3DwsQhl4pS27pQ-2" value="" style="rounded=0;whiteSpace=wrap;html=1;" vertex="1" parent="1">
          <mxGeometry x="370" y="20" width="220" height="650" as="geometry" />
        </mxCell>
        <mxCell id="KcF6cn3DwsQhl4pS27pQ-4" value="register" style="ellipse;whiteSpace=wrap;html=1;" vertex="1" parent="1">
          <mxGeometry x="390" y="60" width="60" height="60" as="geometry" />
        </mxCell>
        <mxCell id="KcF6cn3DwsQhl4pS27pQ-5" value="" style="endArrow=none;html=1;rounded=0;exitX=1;exitY=0.3333333333333333;exitDx=0;exitDy=0;exitPerimeter=0;entryX=0;entryY=0.667;entryDx=0;entryDy=0;entryPerimeter=0;" edge="1" parent="1" source="KcF6cn3DwsQhl4pS27pQ-1" target="KcF6cn3DwsQhl4pS27pQ-4">
          <mxGeometry width="50" height="50" relative="1" as="geometry">
            <mxPoint x="400" y="180" as="sourcePoint" />
            <mxPoint x="450" y="130" as="targetPoint" />
          </mxGeometry>
        </mxCell>
        <mxCell id="KcF6cn3DwsQhl4pS27pQ-6" value="login" style="ellipse;whiteSpace=wrap;html=1;" vertex="1" parent="1">
          <mxGeometry x="500" y="110" width="60" height="50" as="geometry" />
        </mxCell>
        <mxCell id="KcF6cn3DwsQhl4pS27pQ-16" value="home page" style="ellipse;whiteSpace=wrap;html=1;" vertex="1" parent="1">
          <mxGeometry x="400" y="170" width="60" height="50" as="geometry" />
        </mxCell>
        <mxCell id="KcF6cn3DwsQhl4pS27pQ-17" value="include" style="endArrow=none;html=1;rounded=0;entryX=0.082;entryY=0.757;entryDx=0;entryDy=0;entryPerimeter=0;exitX=0.918;exitY=0.225;exitDx=0;exitDy=0;exitPerimeter=0;fontSize=9;" edge="1" parent="1" source="KcF6cn3DwsQhl4pS27pQ-16" target="KcF6cn3DwsQhl4pS27pQ-6">
          <mxGeometry width="50" height="50" relative="1" as="geometry">
            <mxPoint x="430" y="240" as="sourcePoint" />
            <mxPoint x="480" y="190" as="targetPoint" />
          </mxGeometry>
        </mxCell>
        <mxCell id="KcF6cn3DwsQhl4pS27pQ-20" value="mencari barang" style="ellipse;whiteSpace=wrap;html=1;" vertex="1" parent="1">
          <mxGeometry x="500" y="210" width="60" height="60" as="geometry" />
        </mxCell>
        <mxCell id="KcF6cn3DwsQhl4pS27pQ-21" value="include" style="endArrow=none;html=1;rounded=0;entryX=0.048;entryY=0.337;entryDx=0;entryDy=0;entryPerimeter=0;exitX=0.952;exitY=0.728;exitDx=0;exitDy=0;exitPerimeter=0;fontSize=9;" edge="1" parent="1" source="KcF6cn3DwsQhl4pS27pQ-16" target="KcF6cn3DwsQhl4pS27pQ-20">
          <mxGeometry width="50" height="50" relative="1" as="geometry">
            <mxPoint x="430" y="240" as="sourcePoint" />
            <mxPoint x="480" y="190" as="targetPoint" />
          </mxGeometry>
        </mxCell>
        <mxCell id="KcF6cn3DwsQhl4pS27pQ-23" value="tambahkan barang ke keranjang" style="ellipse;whiteSpace=wrap;html=1;" vertex="1" parent="1">
          <mxGeometry x="395" y="260" width="70" height="70" as="geometry" />
        </mxCell>
        <mxCell id="KcF6cn3DwsQhl4pS27pQ-24" value="include" style="endArrow=none;html=1;rounded=0;entryX=0.087;entryY=0.789;entryDx=0;entryDy=0;entryPerimeter=0;exitX=0.956;exitY=0.309;exitDx=0;exitDy=0;exitPerimeter=0;fontSize=9;" edge="1" parent="1" source="KcF6cn3DwsQhl4pS27pQ-23" target="KcF6cn3DwsQhl4pS27pQ-20">
          <mxGeometry width="50" height="50" relative="1" as="geometry">
            <mxPoint x="430" y="280" as="sourcePoint" />
            <mxPoint x="480" y="230" as="targetPoint" />
          </mxGeometry>
        </mxCell>
        <mxCell id="KcF6cn3DwsQhl4pS27pQ-26" value="hapus barang" style="ellipse;whiteSpace=wrap;html=1;" vertex="1" parent="1">
          <mxGeometry x="500" y="300" width="60" height="60" as="geometry" />
        </mxCell>
        <mxCell id="KcF6cn3DwsQhl4pS27pQ-27" value="include" style="endArrow=none;html=1;rounded=0;entryX=0.031;entryY=0.312;entryDx=0;entryDy=0;entryPerimeter=0;exitX=0.939;exitY=0.716;exitDx=0;exitDy=0;exitPerimeter=0;fontSize=9;" edge="1" parent="1" source="KcF6cn3DwsQhl4pS27pQ-23" target="KcF6cn3DwsQhl4pS27pQ-26">
          <mxGeometry width="50" height="50" relative="1" as="geometry">
            <mxPoint x="420" y="320" as="sourcePoint" />
            <mxPoint x="470" y="270" as="targetPoint" />
          </mxGeometry>
        </mxCell>
        <mxCell id="KcF6cn3DwsQhl4pS27pQ-29" value="pembayaran dan&lt;div&gt;memilih cara membayar&lt;/div&gt;" style="ellipse;whiteSpace=wrap;html=1;" vertex="1" parent="1">
          <mxGeometry x="388" y="360" width="82" height="80" as="geometry" />
        </mxCell>
        <mxCell id="KcF6cn3DwsQhl4pS27pQ-30" value="include" style="endArrow=none;html=1;rounded=0;entryX=0.5;entryY=1;entryDx=0;entryDy=0;exitX=0.436;exitY=0.02;exitDx=0;exitDy=0;exitPerimeter=0;fontSize=9;" edge="1" parent="1" source="KcF6cn3DwsQhl4pS27pQ-29" target="KcF6cn3DwsQhl4pS27pQ-23">
          <mxGeometry width="50" height="50" relative="1" as="geometry">
            <mxPoint x="430" y="360" as="sourcePoint" />
            <mxPoint x="470" y="300" as="targetPoint" />
          </mxGeometry>
        </mxCell>
        <mxCell id="KcF6cn3DwsQhl4pS27pQ-33" value="pembayaran&amp;nbsp;&lt;div&gt;selesai&lt;/div&gt;" style="ellipse;whiteSpace=wrap;html=1;" vertex="1" parent="1">
          <mxGeometry x="500" y="420" width="75" height="80" as="geometry" />
        </mxCell>
        <mxCell id="KcF6cn3DwsQhl4pS27pQ-34" value="include" style="endArrow=none;html=1;rounded=0;entryX=0.033;entryY=0.355;entryDx=0;entryDy=0;entryPerimeter=0;exitX=0.943;exitY=0.713;exitDx=0;exitDy=0;exitPerimeter=0;fontSize=9;" edge="1" parent="1" source="KcF6cn3DwsQhl4pS27pQ-29" target="KcF6cn3DwsQhl4pS27pQ-33">
          <mxGeometry width="50" height="50" relative="1" as="geometry">
            <mxPoint x="420" y="400" as="sourcePoint" />
            <mxPoint x="470" y="350" as="targetPoint" />
          </mxGeometry>
        </mxCell>
        <mxCell id="KcF6cn3DwsQhl4pS27pQ-35" value="extend" style="endArrow=none;html=1;rounded=0;entryX=0.05;entryY=0.323;entryDx=0;entryDy=0;entryPerimeter=0;exitX=0.969;exitY=0.683;exitDx=0;exitDy=0;exitPerimeter=0;fontSize=9;" edge="1" parent="1" source="KcF6cn3DwsQhl4pS27pQ-4" target="KcF6cn3DwsQhl4pS27pQ-6">
          <mxGeometry width="50" height="50" relative="1" as="geometry">
            <mxPoint x="420" y="180" as="sourcePoint" />
            <mxPoint x="470" y="130" as="targetPoint" />
          </mxGeometry>
        </mxCell>
        <mxCell id="KcF6cn3DwsQhl4pS27pQ-36" value="barang diproses&lt;div&gt;dan diantar&lt;/div&gt;" style="ellipse;whiteSpace=wrap;html=1;" vertex="1" parent="1">
          <mxGeometry x="390" y="490" width="75" height="70" as="geometry" />
        </mxCell>
        <mxCell id="KcF6cn3DwsQhl4pS27pQ-37" value="extend" style="endArrow=none;html=1;rounded=0;entryX=0.086;entryY=0.798;entryDx=0;entryDy=0;entryPerimeter=0;exitX=1.004;exitY=0.296;exitDx=0;exitDy=0;exitPerimeter=0;fontSize=9;" edge="1" parent="1" source="KcF6cn3DwsQhl4pS27pQ-36" target="KcF6cn3DwsQhl4pS27pQ-33">
          <mxGeometry width="50" height="50" relative="1" as="geometry">
            <mxPoint x="420" y="520" as="sourcePoint" />
            <mxPoint x="470" y="470" as="targetPoint" />
          </mxGeometry>
        </mxCell>
      </root>
    </mxGraphModel>
  </diagram>
</mxfile>
